<?xml version="1.0" encoding="UTF-8"?>
<svg viewBox="0 0 420 360" xmlns="http://www.w3.org/2000/svg">
 <g transform="matrix(.63435 0 0 .63435 -5.4693 27.78)">
  <path d="m438.13 429.17c-62.798-3.1643-155.2 7.895-186.2-31.399-14.206-74.769-54.801-112.41-124.5-113.18-42.796-82.648 34.889-95.6 87.991-116.83 3.3733 38.416 1.3063 78.347 62.068 100.77 2.4391-11.888 7.4231-21.594 23.367-21.906l89.816 0.36511 63.529-49.655c10.266 16.328 30.639 37.249 30.669 48.924l96.388 0.36511c7.0192 5.9786 12.973 21.843-1.0953 37.606-57.741-1.7528-162.69 4.5553-142.03 144.95z" fill-rule="evenodd"/>
  <path d="m281.45 113.14 0.25817-34.044 38.122-5.1741v-27.018l-38.897 6.465c2.8605-24.34 18.51-41.939 52.985-47.036 21.646 1.5256 44.346 2.6992 57.259 43.19 3.7843 16.06 1.4255 32.309-8.5487 46.306-32.288-17.699-56.453-5.6172-78.498 14.239l-22.681 3.0721z" fill-rule="evenodd"/>
  <path d="m215.05 186.74 113.55-85.8c15.262-8.1407 32.094-9.6897 52.21 2.5558 17.196 15.622 46.244 58.898 69.37 88.356l-64.624 48.377-62.068-86.348-98.214 75.212c-7.56-13.195-9.329-28.681-10.223-42.352z" fill-rule="evenodd"/>
  <path transform="matrix(.97447 0 0 .97447 -15.377 -10.084)" d="m241.7 414.2c0.00714 46.181-37.428 83.622-83.609 83.622s-83.617-37.441-83.609-83.622c-0.00714-46.181 37.428-83.622 83.609-83.622s83.617 37.441 83.609 83.622z" fill="none" stroke="#000" stroke-linecap="round" stroke-linejoin="round" stroke-width="35"/>
  <path transform="matrix(.97447 0 0 .97447 388.62 -9.9732)" d="m241.7 414.2c0.00714 46.181-37.428 83.622-83.609 83.622s-83.617-37.441-83.609-83.622c-0.00714-46.181 37.428-83.622 83.609-83.622s83.617 37.441 83.609 83.622z" fill="none" stroke="#000" stroke-linecap="round" stroke-linejoin="round" stroke-width="35"/>
 </g>
</svg>
