<?xml version='1.0' encoding='utf-8'?>
<svg xmlns="http://www.w3.org/2000/svg" width="744.09448819" height="1052.3622047" id="svg2" version="1.1"> <defs id="defs4"/> <metadata id="metadata7"> </metadata> <g id="layer1"> <path style="fill:#523216;fill-opacity:1;stroke:none" d="m 215.5522,334.28761 c -40.23933,41.82117 -26.2304,120.65301 31.2964,176.07612 57.52681,55.42307 136.78147,66.44416 177.02084,24.6231 C 464.10862,493.16555 450.0997,414.33368 392.57294,358.9106 335.0461,303.48752 255.79147,292.46644 215.5522,334.28761 z" id="path3971"/> <path style="fill:#462b13;fill-opacity:1;stroke:none" d="m 218.01501,344.39027 c -37.55301,39.00361 -25.22248,111.8093 27.5471,162.61622 52.76953,50.80697 125.99007,60.3704 163.54309,21.36694 37.55291,-39.00367 25.22239,-111.80938 -27.54714,-162.61629 -52.76957,-50.80699 -125.99012,-60.37043 -163.54305,-21.36687 z" id="path3193"/> <path id="path3969" d="M 223.30744,349.48603 C 329.24708,342.40043 382.90243,489.69118 403.79452,523.26032 350.54397,506.18248 298.74655,350.51474 223.30744,349.48603 z" style="fill:#2c1b0c;fill-opacity:1;stroke:none"/> <path style="fill:#7e4d22;fill-opacity:1;stroke:none" d="M 223.30744,349.48603 C 304.0027,378.09077 318.8431,498.48746 403.79452,523.26032 320.36906,536.06898 281.55808,405.46015 223.30744,349.48603 z" id="path3963"/> <path id="path3808-6" d="m 211.14595,337.77672 c -40.25282,41.80768 -27.03581,119.84758 29.52753,174.30722 56.56333,54.45961 135.04795,64.71063 175.30078,22.90307 40.25269,-41.80779 27.03571,-119.84772 -29.52761,-174.30733 -56.56336,-54.45963 -135.04793,-64.71065 -175.3007,-22.90296 z m 12.16149,11.70931 c 90.16616,13.1522 112.98208,126.57032 180.48708,173.77429 -75.4084,2.50102 -111.71583,-131.32663 -180.48708,-173.77429 z" style="fill:#6b411d;fill-opacity:1;stroke:none"/> <path style="fill:#834b1d;fill-opacity:1;stroke:none" d="M 200.96649,368.39861 C 230.58278,457.85887 291.14954,555.951 404.84027,543.36117 292.80233,591.64749 168.72106,467.1605 200.96649,368.39861 z" id="path3965"/> <path style="fill:#54361d;fill-opacity:1;stroke:none" d="M 432.72625,498.26301 C 449.43613,424.57051 379.36713,334.7769 304.61973,319.31269 382.85049,357.67896 437.47859,444.06572 432.72625,498.26301 z" id="path3967"/> <path id="path3973" d="m 564.46947,523.83627 c -37.58949,-20.74679 -91.23915,4.35789 -119.82885,56.07762 -28.58966,51.71973 -21.29008,110.46409 16.29931,131.21094 37.58952,20.74666 91.2392,-4.35801 119.82888,-56.07771 28.58967,-51.71975 21.2901,-110.46409 -16.29934,-131.21085 z" style="fill:#523216;fill-opacity:1;stroke:none"/> <path id="path3975" d="m 557.72181,527.53055 c -35.06173,-19.36668 -84.72655,3.38478 -110.92849,50.82121 -26.20194,47.43639 -19.01612,101.58978 16.0455,120.95649 35.06176,19.3666 84.72661,-3.38488 110.92854,-50.82128 26.20194,-47.43642 19.01613,-101.5898 -16.04555,-120.95642 z" style="fill:#462b13;fill-opacity:1;stroke:none"/> <path style="fill:#2c1b0c;fill-opacity:1;stroke:none" d="m 555.09383,532.28812 c 25.34774,74.3461 -69.63039,140.88947 -89.61811,162.24618 2.00755,-41.32192 103.32749,-108.14161 89.61811,-162.24618 z" id="path3977"/> <path id="path3979" d="m 555.09383,532.28812 c -4.98959,63.14057 -88.18166,96.79791 -89.61811,162.24618 -25.12654,-57.16201 60.77326,-109.9037 89.61811,-162.24618 z" style="fill:#7e4d22;fill-opacity:1;stroke:none"/> <path style="fill:#6b411d;fill-opacity:1;stroke:none" d="m 561.13253,521.35571 c -37.58243,-20.759 -90.81782,3.62813 -118.9035,54.47488 -28.08567,50.8468 -20.38327,108.89345 17.19907,129.6525 37.58245,20.75892 90.81788,-3.62823 118.90355,-54.47498 28.08568,-50.84679 20.38327,-108.89343 -17.19912,-129.6524 z m -6.0387,10.93241 c 7.86596,66.94959 -68.81224,104.96992 -89.61811,162.24618 -16.2258,-53.40677 72.45347,-104.97577 89.61811,-162.24618 z" id="path3981"/> <path id="path3983" d="M 537.30152,519.94487 C 479.04532,558.23736 420.5471,620.29933 451.3122,699.13034 395.35539,628.3153 460.5537,515.81295 537.30152,519.94487 z" style="fill:#834b1d;fill-opacity:1;stroke:none"/> <path id="path3985" d="m 488.87804,710.42215 c 55.85896,-2.16942 106.60778,-69.43262 103.34621,-125.8069 -12.4369,63.24854 -63.70776,118.82557 -103.34621,125.8069 z" style="fill:#54361d;fill-opacity:1;stroke:none"/> <path id="path3973-6" d="m 162.51135,563.7489 c 23.66961,-22.7743 68.28617,-14.84563 99.65409,17.7129 31.36789,32.55855 37.60551,77.41442 13.93596,100.18878 -23.66965,22.77421 -68.28625,14.84558 -99.65415,-17.71294 -31.36787,-32.55856 -37.60549,-77.41443 -13.9359,-100.18874 z" style="fill:#523216;fill-opacity:1;stroke:none"/> <path id="path3975-0" d="m 168.22917,565.1428 c 22.07494,-21.25393 63.28087,-14.27519 92.03616,15.59088 28.75529,29.86606 34.16793,71.3068 12.09307,92.56074 -22.07496,21.25388 -63.28092,14.27515 -92.03618,-15.59091 -28.75532,-29.86607 -34.16794,-71.30679 -12.09305,-92.56071 z" style="fill:#462b13;fill-opacity:1;stroke:none"/> <path style="fill:#2c1b0c;fill-opacity:1;stroke:none" d="m 171.11322,568.13817 c -4.01025,59.95883 79.35213,90.32624 98.3513,102.15055 -9.66555,-30.13827 -97.76907,-59.45416 -98.3513,-102.15055 z" id="path3977-6"/> <path id="path3979-2" d="m 171.11322,568.13817 c 16.18947,45.67123 84.33058,54.07046 98.3513,102.15055 7.24935,-47.21643 -66.67153,-69.18234 -98.3513,-102.15055 z" style="fill:#7e4d22;fill-opacity:1;stroke:none"/> <path style="fill:#6b411d;fill-opacity:1;stroke:none" d="m 164.48607,561.25509 c 23.66198,-22.78193 67.83035,-15.30149 98.65295,16.71175 30.82259,32.01327 36.62438,76.43331 12.96248,99.21528 -23.66202,22.78188 -67.83039,15.30144 -98.65298,-16.71179 -30.82261,-32.01326 -36.62438,-76.43329 -12.96245,-99.21524 z m 6.62715,6.88308 c 7.44377,51.03148 71.63522,63.94465 98.3513,102.15055 1.41552,-42.679 -74.32713,-63.22797 -98.3513,-102.15055 z" id="path3981-6"/> <path id="path3983-1" d="m 181.8172,555.49382 c 50.63198,16.76198 106.14934,51.04106 99.02385,115.38677 27.32869,-63.41028 -43.12742,-133.63677 -99.02385,-115.38677 z" style="fill:#834b1d;fill-opacity:1;stroke:none"/> <path id="path3985-8" d="m 255.31676,686.66327 c -41.70785,9.45731 -92.52846,-30.19975 -101.28079,-72.50465 21.71422,44.27638 70.60666,75.19432 101.28079,72.50465 z" style="fill:#54361d;fill-opacity:1;stroke:none"/> </g> </svg>